<svg xmlns="http://www.w3.org/2000/svg" xmlns:xlink="http://www.w3.org/1999/xlink" width="135" viewBox="0 0 135 75" height="75" version="1.0"><defs><g id="a"><path d="M 67.40625 -58.53125 C 70.445312 -55.738281 71.351562 -52.367188 70.125 -48.421875 C 69.894531 -47.734375 69.609375 -47.066406 69.265625 -46.421875 C 68.628906 -45.285156 67.90625 -44.210938 67.09375 -43.203125 C 66.28125 -42.203125 65.414062 -41.242188 64.5 -40.328125 C 63.882812 -39.691406 63.164062 -39.476562 62.34375 -39.6875 C 62.113281 -39.707031 61.960938 -39.816406 61.890625 -40.015625 C 61.847656 -40.222656 61.90625 -40.394531 62.0625 -40.53125 C 63.550781 -41.96875 64.859375 -43.554688 65.984375 -45.296875 C 66.773438 -46.460938 67.351562 -47.722656 67.71875 -49.078125 C 68.613281 -52.734375 67.613281 -55.742188 64.71875 -58.109375 C 63.34375 -59.191406 61.8125 -59.953125 60.125 -60.390625 C 58.519531 -60.816406 56.910156 -61.09375 55.296875 -61.21875 C 53.691406 -61.34375 52.078125 -61.347656 50.453125 -61.234375 C 47.960938 -61.097656 45.492188 -60.8125 43.046875 -60.375 C 40.609375 -59.945312 38.175781 -59.4375 35.75 -58.84375 C 32.59375 -58.0625 29.492188 -57.101562 26.453125 -55.96875 C 23.421875 -54.84375 20.476562 -53.5 17.625 -51.9375 C 14.851562 -50.457031 12.289062 -48.675781 9.9375 -46.59375 C 7.84375 -44.75 6.117188 -42.585938 4.765625 -40.109375 C 3.035156 -36.828125 3.179688 -33.628906 5.203125 -30.515625 C 6.492188 -28.648438 8.023438 -26.992188 9.796875 -25.546875 C 12.554688 -23.265625 15.472656 -21.207031 18.546875 -19.375 C 21.128906 -17.832031 23.707031 -16.304688 26.28125 -14.796875 C 28 -13.804688 29.703125 -12.8125 31.390625 -11.8125 C 32.609375 -11.101562 33.796875 -10.367188 34.953125 -9.609375 C 36.117188 -8.859375 37.253906 -8.050781 38.359375 -7.1875 C 39.023438 -6.632812 39.753906 -6.5 40.546875 -6.78125 C 43.296875 -7.582031 46.082031 -8.148438 48.90625 -8.484375 C 49 -8.484375 49.09375 -8.492188 49.1875 -8.515625 C 49.832031 -8.628906 50.457031 -8.628906 51.0625 -8.515625 C 51.21875 -8.472656 51.351562 -8.398438 51.46875 -8.296875 C 51.582031 -8.191406 51.640625 -8.039062 51.640625 -7.84375 C 51.640625 -7.632812 51.578125 -7.476562 51.453125 -7.375 C 51.328125 -7.269531 51.1875 -7.21875 51.03125 -7.21875 C 50.050781 -7.195312 49.09375 -7.09375 48.15625 -6.90625 C 47.21875 -6.726562 46.289062 -6.523438 45.375 -6.296875 C 44.644531 -6.109375 43.925781 -5.945312 43.21875 -5.8125 C 43.125 -5.789062 43.035156 -5.769531 42.953125 -5.75 C 42.609375 -5.695312 42.269531 -5.613281 41.9375 -5.5 C 41.601562 -5.382812 41.3125 -5.210938 41.0625 -4.984375 C 41.238281 -4.523438 41.488281 -4.148438 41.8125 -3.859375 C 41.945312 -3.691406 42.082031 -3.519531 42.21875 -3.34375 C 42.789062 -2.59375 43.289062 -1.8125 43.71875 -1 C 44.144531 -0.1875 44.460938 0.675781 44.671875 1.59375 C 45.160156 3.945312 44.390625 5.765625 42.359375 7.046875 C 41.671875 7.453125 40.953125 7.789062 40.203125 8.0625 C 37.546875 9.019531 34.816406 9.421875 32.015625 9.265625 C 30.910156 9.191406 29.882812 8.914062 28.9375 8.4375 C 27.625 7.757812 26.757812 6.800781 26.34375 5.5625 C 25.9375 4.320312 26.054688 3.046875 26.703125 1.734375 C 27.140625 0.878906 27.710938 0.144531 28.421875 -0.46875 C 29.304688 -1.269531 30.253906 -1.984375 31.265625 -2.609375 C 32.285156 -3.234375 33.335938 -3.8125 34.421875 -4.34375 C 34.867188 -4.570312 35.3125 -4.800781 35.75 -5.03125 C 35.976562 -5.144531 36.207031 -5.257812 36.4375 -5.375 C 36.457031 -5.625 36.414062 -5.816406 36.3125 -5.953125 C 36.207031 -6.085938 36.085938 -6.203125 35.953125 -6.296875 C 35.898438 -6.316406 35.851562 -6.351562 35.8125 -6.40625 C 33.96875 -7.8125 32.035156 -9.097656 30.015625 -10.265625 C 27.578125 -11.710938 25.125 -13.140625 22.65625 -14.546875 C 21.625 -15.140625 20.59375 -15.75 19.5625 -16.375 C 16 -18.425781 12.570312 -20.6875 9.28125 -23.15625 C 7.25 -24.664062 5.410156 -26.378906 3.765625 -28.296875 C 2.972656 -29.273438 2.300781 -30.335938 1.75 -31.484375 C 0.582031 -33.921875 0.46875 -36.4375 1.40625 -39.03125 C 1.882812 -40.351562 2.519531 -41.578125 3.3125 -42.703125 C 4.113281 -43.835938 5 -44.90625 5.96875 -45.90625 C 8.113281 -48.132812 10.488281 -50.03125 13.09375 -51.59375 C 17.40625 -54.257812 21.960938 -56.390625 26.765625 -57.984375 C 32.753906 -59.992188 38.878906 -61.421875 45.140625 -62.265625 C 47.304688 -62.554688 49.484375 -62.726562 51.671875 -62.78125 C 53.859375 -62.84375 56.035156 -62.703125 58.203125 -62.359375 C 59.503906 -62.179688 60.765625 -61.910156 61.984375 -61.546875 C 63.203125 -61.179688 64.375 -60.65625 65.5 -59.96875 C 66.175781 -59.53125 66.8125 -59.050781 67.40625 -58.53125 Z M 38.796875 -3.609375 C 38.429688 -3.984375 38.007812 -4.039062 37.53125 -3.78125 C 36.3125 -3.238281 35.140625 -2.628906 34.015625 -1.953125 C 32.890625 -1.285156 31.8125 -0.523438 30.78125 0.328125 C 30.226562 0.804688 29.769531 1.363281 29.40625 2 C 28.726562 3.300781 28.65625 4.507812 29.1875 5.625 C 29.71875 6.75 30.707031 7.441406 32.15625 7.703125 C 32.5 7.742188 32.804688 7.773438 33.078125 7.796875 C 33.171875 7.796875 33.25 7.796875 33.3125 7.796875 C 35.507812 7.734375 37.507812 7.285156 39.3125 6.453125 C 41.550781 5.492188 42.363281 3.835938 41.75 1.484375 C 41.488281 0.503906 41.101562 -0.398438 40.59375 -1.234375 C 40.082031 -2.078125 39.484375 -2.867188 38.796875 -3.609375 Z M 38.796875 -3.609375"/></g><g id="b"><path d="M 15.265625 -7.5625 C 16.148438 -8.539062 16.613281 -8.914062 16.65625 -8.6875 C 16.707031 -8.457031 16.519531 -7.925781 16.09375 -7.09375 C 15.664062 -6.257812 15.003906 -5.546875 14.109375 -4.953125 C 13.460938 -4.546875 12.898438 -4.269531 12.421875 -4.125 C 11.953125 -3.988281 11.523438 -3.910156 11.140625 -3.890625 C 10.378906 -3.847656 9.796875 -4.066406 9.390625 -4.546875 C 8.992188 -5.023438 8.71875 -5.640625 8.5625 -6.390625 C 8.40625 -7.148438 8.289062 -7.925781 8.21875 -8.71875 C 8.144531 -9.226562 8.078125 -9.6875 8.015625 -10.09375 C 7.929688 -10.738281 7.75 -11.09375 7.46875 -11.15625 C 7.195312 -11.226562 6.773438 -10.816406 6.203125 -9.921875 C 5.609375 -8.960938 5.085938 -7.90625 4.640625 -6.75 C 4.191406 -5.601562 3.796875 -4.476562 3.453125 -3.375 C 3.429688 -3.332031 3.410156 -3.273438 3.390625 -3.203125 C 3.316406 -3.046875 3.257812 -2.882812 3.21875 -2.71875 C 3.082031 -2.269531 2.921875 -1.828125 2.734375 -1.390625 C 2.585938 -1.023438 2.320312 -0.785156 1.9375 -0.671875 C 1.5625 -0.554688 1.164062 -0.582031 0.75 -0.75 C 0.476562 -0.863281 0.296875 -1.054688 0.203125 -1.328125 C 0.0664062 -1.742188 0.0195312 -2.164062 0.0625 -2.59375 C 0.0625 -2.632812 0.0625 -2.664062 0.0625 -2.6875 C 0.15625 -4.5 0.171875 -7.507812 0.109375 -11.71875 C 0.0546875 -15.070312 0.03125 -18.679688 0.03125 -22.546875 C 0.03125 -26.410156 0.128906 -30.054688 0.328125 -33.484375 C 0.523438 -36.910156 0.863281 -39.648438 1.34375 -41.703125 C 1.550781 -42.453125 1.890625 -43.125 2.359375 -43.71875 C 2.835938 -44.320312 3.367188 -44.648438 3.953125 -44.703125 C 4.535156 -44.765625 5.082031 -44.367188 5.59375 -43.515625 C 5.9375 -42.785156 6.148438 -42.007812 6.234375 -41.1875 C 6.460938 -38.757812 6.253906 -35.023438 5.609375 -29.984375 C 4.972656 -24.953125 4.304688 -20.546875 3.609375 -16.765625 C 2.921875 -12.984375 2.578125 -9.828125 2.578125 -7.296875 C 2.796875 -7.679688 3.019531 -8.085938 3.25 -8.515625 C 3.570312 -9.160156 3.929688 -9.800781 4.328125 -10.4375 C 4.734375 -11.082031 5.207031 -11.628906 5.75 -12.078125 C 6.300781 -12.523438 6.96875 -12.804688 7.75 -12.921875 C 8.269531 -13.003906 8.800781 -12.96875 9.34375 -12.8125 C 9.894531 -12.65625 10.265625 -12.273438 10.453125 -11.671875 C 10.679688 -10.617188 10.757812 -9.5 10.6875 -8.3125 C 10.6875 -7.0625 10.90625 -6.269531 11.34375 -5.9375 C 11.78125 -5.601562 12.320312 -5.546875 12.96875 -5.765625 C 13.613281 -5.984375 14.378906 -6.582031 15.265625 -7.5625 Z M 3.625 -39.78125 C 3.507812 -38.476562 3.378906 -36.304688 3.234375 -33.265625 C 3.085938 -30.234375 2.960938 -27.1875 2.859375 -24.125 C 2.753906 -21.070312 2.703125 -18.535156 2.703125 -16.515625 C 2.953125 -18.335938 3.253906 -20.71875 3.609375 -23.65625 C 3.960938 -26.59375 4.273438 -29.613281 4.546875 -32.71875 C 4.828125 -35.820312 4.96875 -38.15625 4.96875 -39.71875 C 4.945312 -40.53125 4.890625 -41.132812 4.796875 -41.53125 C 4.703125 -41.9375 4.546875 -42.082031 4.328125 -41.96875 C 4.109375 -41.851562 3.941406 -41.5625 3.828125 -41.09375 C 3.710938 -40.625 3.644531 -40.1875 3.625 -39.78125 Z M 3.625 -39.78125"/></g><g id="c"><path d="M 8.078125 -6.328125 C 7.765625 -5.660156 7.21875 -4.921875 6.4375 -4.109375 C 5.664062 -3.296875 4.789062 -2.78125 3.8125 -2.5625 C 2.832031 -2.351562 1.894531 -2.691406 1 -3.578125 C 0.65625 -3.972656 0.398438 -4.425781 0.234375 -4.9375 C 0.078125 -5.457031 0.0195312 -5.96875 0.0625 -6.46875 C 0.0625 -6.601562 0.0625 -6.773438 0.0625 -6.984375 C 0.0625 -7.515625 0.0820312 -8.125 0.125 -8.8125 C 0.175781 -9.507812 0.28125 -10.140625 0.4375 -10.703125 C 0.601562 -11.265625 0.859375 -11.601562 1.203125 -11.71875 C 2.179688 -11.96875 2.710938 -11.625 2.796875 -10.6875 C 2.796875 -10.382812 2.785156 -10.082031 2.765625 -9.78125 C 2.742188 -9.625 2.734375 -9.476562 2.734375 -9.34375 C 2.710938 -8.90625 2.691406 -8.46875 2.671875 -8.03125 C 2.671875 -7.695312 2.660156 -7.359375 2.640625 -7.015625 C 2.617188 -5.503906 2.953125 -4.601562 3.640625 -4.3125 C 4.335938 -4.03125 5.132812 -4.335938 6.03125 -5.234375 C 6.925781 -6.128906 7.507812 -6.867188 7.78125 -7.453125 C 8.050781 -8.046875 8.25 -8.171875 8.375 -7.828125 C 8.5 -7.492188 8.398438 -6.992188 8.078125 -6.328125 Z M 2.609375 -14.921875 C 2.472656 -14.804688 2.304688 -14.734375 2.109375 -14.703125 C 1.921875 -14.671875 1.753906 -14.6875 1.609375 -14.75 C 1.492188 -14.84375 1.421875 -14.960938 1.390625 -15.109375 C 1.359375 -15.265625 1.34375 -15.445312 1.34375 -15.65625 C 1.34375 -15.695312 1.351562 -15.738281 1.375 -15.78125 C 1.394531 -15.96875 1.441406 -16.15625 1.515625 -16.34375 C 1.722656 -16.84375 2.148438 -17.070312 2.796875 -17.03125 C 3.023438 -17 3.203125 -16.90625 3.328125 -16.75 C 3.460938 -16.59375 3.492188 -16.410156 3.421875 -16.203125 C 3.265625 -15.691406 2.992188 -15.265625 2.609375 -14.921875 Z M 2.609375 -14.921875"/></g><g id="d"><path d="M 9.453125 -8.5 C 9.453125 -8.257812 8.945312 -7.835938 7.9375 -7.234375 C 6.9375 -6.628906 6.195312 -6.171875 5.71875 -5.859375 C 5.238281 -5.554688 5 -5.367188 5 -5.296875 C 5.09375 -5.085938 5.191406 -4.738281 5.296875 -4.25 C 5.398438 -3.757812 5.4375 -3.226562 5.40625 -2.65625 C 5.382812 -2.09375 5.203125 -1.585938 4.859375 -1.140625 C 4.515625 -0.691406 3.941406 -0.421875 3.140625 -0.328125 C 2.347656 -0.265625 1.632812 -0.382812 1 -0.6875 C 0.375 -1 -0.015625 -1.441406 -0.171875 -2.015625 C -0.335938 -2.597656 -0.144531 -3.28125 0.40625 -4.0625 C 0.769531 -4.5 1.207031 -4.878906 1.71875 -5.203125 C 1.894531 -5.316406 2.078125 -5.441406 2.265625 -5.578125 C 1.648438 -6.242188 1.066406 -6.921875 0.515625 -7.609375 C -0.0351562 -8.304688 -0.390625 -8.929688 -0.546875 -9.484375 C -0.710938 -10.117188 -0.601562 -10.71875 -0.21875 -11.28125 C 0.15625 -11.84375 0.8125 -12.171875 1.75 -12.265625 C 2.207031 -12.304688 2.632812 -12.28125 3.03125 -12.1875 C 3.425781 -12.101562 3.796875 -11.910156 4.140625 -11.609375 C 4.210938 -11.535156 4.265625 -11.453125 4.296875 -11.359375 C 4.328125 -11.273438 4.3125 -11.164062 4.25 -11.03125 C 4.132812 -10.820312 3.960938 -10.71875 3.734375 -10.71875 C 3.566406 -10.71875 3.40625 -10.738281 3.25 -10.78125 C 3.082031 -10.851562 2.929688 -10.921875 2.796875 -10.984375 C 2.703125 -11.035156 2.617188 -11.082031 2.546875 -11.125 C 2.242188 -11.238281 2.007812 -11.222656 1.84375 -11.078125 C 1.6875 -10.929688 1.609375 -10.707031 1.609375 -10.40625 C 1.628906 -9.875 1.84375 -9.304688 2.25 -8.703125 C 2.664062 -8.109375 3.078125 -7.554688 3.484375 -7.046875 C 3.648438 -6.867188 3.789062 -6.695312 3.90625 -6.53125 C 4.019531 -6.414062 4.320312 -6.429688 4.8125 -6.578125 C 5.300781 -6.734375 6.195312 -7.148438 7.5 -7.828125 C 8.800781 -8.515625 9.453125 -8.738281 9.453125 -8.5 Z M 2.5 -1.5 C 2.789062 -1.519531 2.984375 -1.6875 3.078125 -2 C 3.171875 -2.3125 3.203125 -2.648438 3.171875 -3.015625 C 3.148438 -3.390625 3.128906 -3.671875 3.109375 -3.859375 C 3.066406 -3.972656 2.992188 -4.046875 2.890625 -4.078125 C 2.785156 -4.109375 2.691406 -4.101562 2.609375 -4.0625 C 2.265625 -3.789062 2.007812 -3.445312 1.84375 -3.03125 C 1.6875 -2.625 1.703125 -2.265625 1.890625 -1.953125 C 1.953125 -1.835938 2.035156 -1.738281 2.140625 -1.65625 C 2.242188 -1.570312 2.363281 -1.519531 2.5 -1.5 Z M 2.5 -1.5"/></g><g id="e"><path d="M 9.9375 -7.46875 C 10.132812 -7.863281 10.269531 -8.046875 10.34375 -8.015625 C 10.414062 -7.992188 10.429688 -7.832031 10.390625 -7.53125 C 10.359375 -7.238281 10.296875 -6.90625 10.203125 -6.53125 C 10.066406 -5.957031 9.832031 -5.289062 9.5 -4.53125 C 9.164062 -3.78125 8.796875 -3.101562 8.390625 -2.5 C 7.796875 -1.644531 7.050781 -1 6.15625 -0.5625 C 5.269531 -0.132812 4.460938 -0.03125 3.734375 -0.25 C 3.015625 -0.46875 2.601562 -1.148438 2.5 -2.296875 C 2.476562 -3.242188 2.554688 -4.289062 2.734375 -5.4375 C 2.796875 -5.914062 2.863281 -6.382812 2.9375 -6.84375 C 2.9375 -7.007812 2.894531 -7.132812 2.8125 -7.21875 C 2.726562 -7.3125 2.625 -7.347656 2.5 -7.328125 C 2.40625 -7.328125 2.300781 -7.328125 2.1875 -7.328125 C 1.613281 -7.234375 1.03125 -7.242188 0.4375 -7.359375 C -0.269531 -7.566406 -0.679688 -7.914062 -0.796875 -8.40625 C -0.910156 -8.894531 -0.898438 -9.539062 -0.765625 -10.34375 C -0.691406 -10.914062 -0.476562 -11.34375 -0.125 -11.625 C 0.226562 -11.914062 0.644531 -12.035156 1.125 -11.984375 C 1.789062 -11.921875 2.113281 -11.664062 2.09375 -11.21875 C 2.070312 -10.769531 1.945312 -10.289062 1.71875 -9.78125 C 1.507812 -9.351562 1.398438 -8.992188 1.390625 -8.703125 C 1.378906 -8.421875 1.625 -8.320312 2.125 -8.40625 C 2.238281 -8.4375 2.363281 -8.472656 2.5 -8.515625 C 2.675781 -8.585938 2.882812 -8.648438 3.125 -8.703125 C 3.363281 -8.765625 3.675781 -8.78125 4.0625 -8.75 C 4.519531 -8.726562 4.820312 -8.519531 4.96875 -8.125 C 5.125 -7.726562 5.191406 -7.226562 5.171875 -6.625 C 5.148438 -6.019531 5.09375 -5.40625 5 -4.78125 C 4.882812 -4 4.828125 -3.332031 4.828125 -2.78125 C 4.828125 -2.226562 4.988281 -1.90625 5.3125 -1.8125 C 5.738281 -1.695312 6.375 -2.082031 7.21875 -2.96875 C 8.0625 -3.851562 8.96875 -5.351562 9.9375 -7.46875 Z M 9.9375 -7.46875"/></g></defs><g fill="#FF3F71" fill-opacity=".4"><use x=".733" y="64.503" xmlns:xlink="http://www.w3.org/1999/xlink" xlink:href="#a" xlink:type="simple" xlink:actuate="onLoad" xlink:show="embed"/></g><g fill="#FF3F71" fill-opacity=".4"><use x="50.825" y="64.503" xmlns:xlink="http://www.w3.org/1999/xlink" xlink:href="#b" xlink:type="simple" xlink:actuate="onLoad" xlink:show="embed"/></g><g fill="#FF3F71" fill-opacity=".4"><use x="66.635" y="64.503" xmlns:xlink="http://www.w3.org/1999/xlink" xlink:href="#c" xlink:type="simple" xlink:actuate="onLoad" xlink:show="embed"/></g><g fill="#FF3F71" fill-opacity=".4"><use x="74.283" y="64.503" xmlns:xlink="http://www.w3.org/1999/xlink" xlink:href="#d" xlink:type="simple" xlink:actuate="onLoad" xlink:show="embed"/></g><g fill="#FF3F71" fill-opacity=".4"><use x="82.678" y="64.503" xmlns:xlink="http://www.w3.org/1999/xlink" xlink:href="#b" xlink:type="simple" xlink:actuate="onLoad" xlink:show="embed"/></g><g fill="#FF3F71" fill-opacity=".4"><use x="98.488" y="64.503" xmlns:xlink="http://www.w3.org/1999/xlink" xlink:href="#c" xlink:type="simple" xlink:actuate="onLoad" xlink:show="embed"/></g><g fill="#FF3F71" fill-opacity=".4"><use x="106.135" y="64.503" xmlns:xlink="http://www.w3.org/1999/xlink" xlink:href="#e" xlink:type="simple" xlink:actuate="onLoad" xlink:show="embed"/></g><g fill="#E9692C"><use y="63.769" xmlns:xlink="http://www.w3.org/1999/xlink" xlink:href="#a" xlink:type="simple" xlink:actuate="onLoad" xlink:show="embed"/></g><g fill="#E9692C"><use x="50.092" y="63.769" xmlns:xlink="http://www.w3.org/1999/xlink" xlink:href="#b" xlink:type="simple" xlink:actuate="onLoad" xlink:show="embed"/></g><g fill="#E9692C"><use x="65.902" y="63.769" xmlns:xlink="http://www.w3.org/1999/xlink" xlink:href="#c" xlink:type="simple" xlink:actuate="onLoad" xlink:show="embed"/></g><g fill="#E9692C"><use x="73.549" y="63.769" xmlns:xlink="http://www.w3.org/1999/xlink" xlink:href="#d" xlink:type="simple" xlink:actuate="onLoad" xlink:show="embed"/></g><g fill="#E9692C"><use x="81.945" y="63.769" xmlns:xlink="http://www.w3.org/1999/xlink" xlink:href="#b" xlink:type="simple" xlink:actuate="onLoad" xlink:show="embed"/></g><g fill="#E9692C"><use x="97.754" y="63.769" xmlns:xlink="http://www.w3.org/1999/xlink" xlink:href="#c" xlink:type="simple" xlink:actuate="onLoad" xlink:show="embed"/></g><g fill="#E9692C"><use x="105.402" y="63.769" xmlns:xlink="http://www.w3.org/1999/xlink" xlink:href="#e" xlink:type="simple" xlink:actuate="onLoad" xlink:show="embed"/></g></svg>